<svg width="24" height="24" viewBox="0 0 24 24" fill="none" xmlns="http://www.w3.org/2000/svg">
  <g opacity="0.6">
    <path d="M2.70659 6.29292C2.51799 6.11076 2.26539 6.00997 2.00319 6.01224C1.741 6.01452 1.49018 6.11969 1.30478 6.3051C1.11937 6.49051 1.0142 6.74132 1.01192 7.00352C1.00964 7.26571 1.11044 7.51832 1.29259 7.70692L11.2926 17.7069C11.4801 17.8944 11.7344 17.9997 11.9996 17.9997C12.2648 17.9997 12.5191 17.8944 12.7066 17.7069L22.7066 7.70692C22.8888 7.51832 22.9895 7.26571 22.9873 7.00352C22.985 6.74132 22.8798 6.49051 22.6944 6.3051C22.509 6.11969 22.2582 6.01452 21.996 6.01224C21.7338 6.00997 21.4812 6.11076 21.2926 6.29292L11.9996 15.5859L2.70659 6.29292Z" fill="#27363A"/>
  </g>
</svg>
