<svg width="72" height="32" viewBox="0 0 72 32" fill="none" xmlns="http://www.w3.org/2000/svg">
  <path d="M25.0646 10.3886C23.9782 10.3886 23.0858 11.281 23.0858 12.3674V20.6123C23.0858 21.6987 23.9782 22.5911 25.0646 22.5911C26.151 22.5911 27.0433 21.6987 27.0433 20.6123V12.3674C27.0433 11.2713 26.151 10.3886 25.0646 10.3886ZM1.97878 10.3886C0.892392 10.3886 0 11.281 0 12.3674V20.6123C0 21.6987 0.892392 22.5911 1.97878 22.5911C3.06517 22.5911 3.95756 21.6987 3.95756 20.6123V12.3674C3.95756 11.2713 3.06517 10.3886 1.97878 10.3886ZM22.3486 10.7281V23.5223C22.3486 24.7057 21.398 25.6563 20.2146 25.6563H18.7984V30.0212C18.7984 31.1076 17.906 32 16.8196 32C15.7333 32 14.8409 31.1076 14.8409 30.0212V25.6563H12.2025V30.0212C12.2025 31.1076 11.3101 32 10.2237 32C9.13731 32 8.24492 31.1076 8.24492 30.0212V25.6563H6.82874C5.64535 25.6563 4.69476 24.7057 4.69476 23.5223V10.7281H22.3486ZM17.8478 2.93907L19.2446 0.417096C19.3222 0.281297 19.2737 0.106699 19.1379 0.0387996C19.0991 0.0193998 19.0506 0 19.0021 0C18.9051 0 18.8081 0.0484995 18.7596 0.145499L17.3434 2.68687C16.1891 2.17278 14.8894 1.88178 13.5217 1.88178C12.154 1.88178 10.8542 2.17278 9.69991 2.68687L8.29342 0.145499C8.21582 0.00969991 8.05092 -0.0387996 7.91513 0.0387996C7.77933 0.116399 7.73083 0.281297 7.80843 0.417096L9.20521 2.93907C6.51834 4.33586 4.71416 6.98393 4.70446 10.0297H22.3583C22.3486 6.98393 20.5347 4.33586 17.8478 2.93907ZM9.44771 6.79964C9.04031 6.79964 8.71052 6.46984 8.71052 6.06244C8.71052 5.65505 9.04031 5.32525 9.44771 5.32525C9.85511 5.32525 10.1849 5.65505 10.1849 6.06244C10.1849 6.46984 9.85511 6.79964 9.44771 6.79964ZM17.5956 6.79964C17.1882 6.79964 16.8584 6.46984 16.8584 6.06244C16.8584 5.65505 17.1882 5.32525 17.5956 5.32525C18.003 5.32525 18.3328 5.65505 18.3328 6.06244C18.3328 6.46984 18.003 6.79964 17.5956 6.79964Z" fill="#27363A" fill-opacity="0.5"/>
  <path d="M65.3409 23.0801C64.1013 22.8676 62.897 22.6905 61.9053 22.1238C61.9053 22.1238 62.5074 19.8215 62.5428 19.7861C64.1721 20.3528 66.4743 21.0966 67.9974 20.3882C68.8474 19.9632 69.237 19.184 69.1308 18.2985C68.9891 17.2713 68.2807 16.7046 66.3681 15.9963C64.2429 15.1816 62.9678 14.2253 62.472 12.9502C62.224 12.3127 62.1532 11.5335 62.2595 10.8251C62.5782 8.87702 64.1013 7.53109 66.4035 7.10606C67.0765 6.9998 68.5286 6.9998 69.237 7.10606C70.2642 7.28316 71.433 7.67277 71.433 7.81444C71.433 7.88528 70.8309 9.97501 70.7955 10.0458C69.7683 9.65624 68.6703 9.37289 67.6786 9.33747C66.3327 9.30205 64.8451 10.1167 65.093 11.5335C65.2701 12.4189 65.8368 12.844 67.9265 13.694C69.485 14.3316 70.1933 14.7566 70.8309 15.3941C71.7164 16.2796 71.9997 17.3068 71.9997 18.3339C71.9997 19.184 71.9289 19.5736 71.6101 20.2466C70.8663 21.8404 69.3787 22.7613 67.1119 23.0092C66.6868 23.0801 65.6951 23.1155 65.3409 23.0801Z" fill="#27363A" fill-opacity="0.5"/>
  <path d="M53.8657 7C52.6614 7 51.6343 7.24794 50.6425 7.7438C48.0569 9.01889 46.5693 11.7462 46.5693 15.1464C46.5693 18.5466 48.0215 21.2031 50.6071 22.4073C51.3155 22.7261 52.0239 22.9032 53.0865 23.0449C53.6178 23.0803 54.1136 23.1157 54.6449 23.0449C55.7075 22.9032 56.4159 22.7261 57.1242 22.4073C59.7098 21.1676 61.162 18.5466 61.162 15.1464C61.162 11.7462 59.6744 9.01889 57.0888 7.7438C56.0617 7.24794 55.0345 7 53.8657 7ZM54.8928 9.4085C56.4513 9.83353 57.5493 11.2149 58.0097 13.2692C58.3285 14.6859 58.2222 16.3507 57.7972 17.6612C57.1242 19.68 55.6721 20.8489 53.8657 20.8135C52.0947 20.8489 50.6071 19.68 49.9342 17.6612C49.5091 16.3507 49.4029 14.7214 49.7216 13.2692C50.1467 11.2149 51.2801 9.83353 52.8385 9.4085C53.5115 9.26682 54.2199 9.26682 54.8928 9.4085Z" fill="#27363A" fill-opacity="0.5"/>
  <path d="M43.5584 7C42.7084 7 42 7.70838 42 8.55844C42 9.4085 42.7084 10.1169 43.5584 10.1169C44.4085 10.1169 45.1169 9.4085 45.1169 8.55844C45.1169 7.70838 44.4085 7 43.5584 7ZM42.1063 11.7107V23.0803H45.0106V11.7107H42.1063Z" fill="#27363A" fill-opacity="0.5"/>
</svg>
