<svg width="24" height="44" viewBox="0 0 24 44" fill="none" xmlns="http://www.w3.org/2000/svg">
<path d="M0.586022 40.586C0.221706 40.9632 0.0201159 41.4684 0.0246728 41.9928C0.0292296 42.5172 0.239568 43.0188 0.610384 43.3896C0.9812 43.7604 1.48283 43.9707 2.00722 43.9753C2.53161 43.9799 3.03682 43.7783 3.41402 43.414L23.414 23.414C23.789 23.0389 23.9996 22.5303 23.9996 22C23.9996 21.4696 23.789 20.961 23.414 20.586L3.41402 0.58596C3.03682 0.221644 2.53161 0.0200549 2.00722 0.0246117C1.48283 0.0291686 0.9812 0.239506 0.610384 0.610322C0.239568 0.981139 0.0292296 1.48276 0.0246728 2.00716C0.0201159 2.53155 0.221706 3.03676 0.586022 3.41396L19.172 22L0.586022 40.586Z" fill="white"/>
</svg>
