<svg width="750" height="6" viewBox="0 0 750 6" fill="none" xmlns="http://www.w3.org/2000/svg">
  <path d="M0 4.5H6.04839V1.5H0V4.5ZM18.1452 4.5H30.2419V1.5H18.1452V4.5ZM42.3387 4.5H54.4355V1.5H42.3387V4.5ZM66.5323 4.5H78.629V1.5H66.5323V4.5ZM90.7258 4.5H102.823V1.5H90.7258V4.5ZM114.919 4.5H127.016V1.5H114.919V4.5ZM139.113 4.5H151.21V1.5H139.113V4.5ZM163.306 4.5H175.403V1.5H163.306V4.5ZM187.5 4.5H199.597V1.5H187.5V4.5ZM211.693 4.5H223.79V1.5H211.693V4.5ZM235.887 4.5H247.984V1.5H235.887V4.5ZM260.081 4.5H272.177V1.5H260.081V4.5ZM284.274 4.5H296.371V1.5H284.274V4.5ZM308.468 4.5H320.564V1.5H308.468V4.5ZM332.661 4.5H344.758V1.5H332.661V4.5ZM356.855 4.5H368.952V1.5H356.855V4.5ZM381.048 4.5H393.145V1.5H381.048V4.5ZM405.242 4.5H417.339V1.5H405.242V4.5ZM429.435 4.5H441.532V1.5H429.435V4.5ZM453.629 4.5H465.726V1.5H453.629V4.5ZM477.822 4.5H489.919V1.5H477.822V4.5ZM502.016 4.5H514.113V1.5H502.016V4.5ZM526.21 4.5H538.306V1.5H526.21V4.5ZM550.403 4.5H562.5V1.5H550.403V4.5ZM574.597 4.5H586.694V1.5H574.597V4.5ZM598.79 4.5H610.887V1.5H598.79V4.5ZM622.984 4.5H635.081V1.5H622.984V4.5ZM647.178 4.5H659.274V1.5H647.178V4.5ZM671.371 4.5H683.468V1.5H671.371V4.5ZM695.565 4.5H707.662V1.5H695.565V4.5ZM719.758 4.5H731.855V1.5H719.758V4.5ZM743.952 4.5H750V1.5H743.952V4.5ZM0 6H6.04839V0H0V6ZM18.1452 6H30.2419V0H18.1452V6ZM42.3387 6H54.4355V0H42.3387V6ZM66.5323 6H78.629V0H66.5323V6ZM90.7258 6H102.823V0H90.7258V6ZM114.919 6H127.016V0H114.919V6ZM139.113 6H151.21V0H139.113V6ZM163.306 6H175.403V0H163.306V6ZM187.5 6H199.597V0H187.5V6ZM211.693 6H223.79V0H211.693V6ZM235.887 6H247.984V0H235.887V6ZM260.081 6H272.177V0H260.081V6ZM284.274 6H296.371V0H284.274V6ZM308.468 6H320.564V0H308.468V6ZM332.661 6H344.758V0H332.661V6ZM356.855 6H368.952V0H356.855V6ZM381.048 6H393.145V0H381.048V6ZM405.242 6H417.339V0H405.242V6ZM429.435 6H441.532V0H429.435V6ZM453.629 6H465.726V0H453.629V6ZM477.822 6H489.919V0H477.822V6ZM502.016 6H514.113V0H502.016V6ZM526.21 6H538.306V0H526.21V6ZM550.403 6H562.5V0H550.403V6ZM574.597 6H586.694V0H574.597V6ZM598.79 6H610.887V0H598.79V6ZM622.984 6H635.081V0H622.984V6ZM647.178 6H659.274V0H647.178V6ZM671.371 6H683.468V0H671.371V6ZM695.565 6H707.662V0H695.565V6ZM719.758 6H731.855V0H719.758V6ZM743.952 6H750V0H743.952V6Z" fill="#7397CE"/>
</svg>
