<svg width="48" height="48" viewBox="0 0 48 48" fill="none" xmlns="http://www.w3.org/2000/svg">
  <path d="M35.4142 42.586C35.7785 42.9632 35.9801 43.4684 35.9755 43.9928C35.971 44.5172 35.7606 45.0188 35.3898 45.3896C35.019 45.7604 34.5174 45.9708 33.993 45.9753C33.4686 45.9799 32.9634 45.7783 32.5862 45.414L12.5862 25.414C12.2112 25.0389 12.0006 24.5303 12.0006 24C12.0006 23.4697 12.2112 22.961 12.5862 22.586L32.5862 2.58599C32.9634 2.22167 33.4686 2.02009 33.993 2.02464C34.5174 2.0292 35.019 2.23954 35.3898 2.61035C35.7606 2.98117 35.971 3.48279 35.9755 4.00719C35.9801 4.53158 35.7785 5.03679 35.4142 5.41399L16.8282 24L35.4142 42.586Z" fill="#7397CE"/>
</svg>
