<svg width="24" height="24" viewBox="0 0 24 24" fill="none" xmlns="http://www.w3.org/2000/svg">
  <path d="M11.5837 6.00327C10.4033 5.99025 9.39868 6.00327 8.8336 6.2895C8.45688 6.47815 8.16806 6.90751 8.34386 6.92702C8.56362 6.95955 9.05963 7.07014 9.32333 7.44094C9.66238 7.91583 9.64982 8.98921 9.64982 8.98921C9.64982 8.98921 9.83818 11.9426 9.19148 12.3134C8.7457 12.5671 8.13667 12.0532 6.81815 9.70479C6.14633 8.4948 5.63776 7.16121 5.63776 7.16121C5.63776 7.16121 5.54358 6.91401 5.36778 6.7839C5.1543 6.62127 4.85921 6.56923 4.85921 6.56923L1.7136 6.58874C1.7136 6.58874 1.2427 6.60826 1.07318 6.81643C0.916207 7.01159 1.06062 7.3954 1.06062 7.3954C1.06062 7.3954 3.52185 13.3608 6.30958 16.3662C8.86499 19.1245 11.7657 18.9423 11.7657 18.9423H13.0843C13.0843 18.9423 13.4798 18.8968 13.6807 18.6756C13.8691 18.4674 13.8628 18.0771 13.8628 18.0771C13.8628 18.0771 13.8377 16.2491 14.6539 15.9759C15.4639 15.7157 16.4936 17.7454 17.5923 18.526C18.4274 19.118 19.0615 18.9879 19.0615 18.9879L21.9999 18.9423C21.9999 18.9423 23.5319 18.8448 22.8036 17.5892C22.7471 17.4916 22.3829 16.6655 20.6249 14.9741C18.779 13.2046 19.0239 13.4909 21.2465 10.4269C22.5964 8.55985 23.1364 7.42142 22.9669 6.92702C22.8036 6.46514 21.8116 6.58874 21.8116 6.58874L18.5027 6.60826C18.5027 6.60826 18.2579 6.57573 18.0758 6.68632C17.9 6.79691 17.787 7.05713 17.787 7.05713C17.787 7.05713 17.2596 8.50131 16.5626 9.73081C15.0934 12.3199 14.4969 12.463 14.2584 12.3004C13.6996 11.9231 13.8377 10.7912 13.8377 9.99102C13.8377 7.47347 14.2081 6.43262 13.1219 6.15939C12.764 6.06832 12.5003 6.00977 11.5837 6.00327Z" fill="#527397"/>
</svg>
