<svg width="16" height="16" viewBox="0 0 16 16" fill="none" xmlns="http://www.w3.org/2000/svg">
  <path d="M11.8756 0.190884C11.367 0.265924 10.8244 0.477604 10.3739 0.777925C10.0871 0.969125 8.08025 2.96576 7.99833 3.13984C7.87881 3.39584 7.93353 3.63824 8.15193 3.83264C8.22025 3.89072 8.31913 3.94864 8.37033 3.9624C8.50009 3.98976 8.94041 4.1024 9.15881 4.16384C9.30553 4.2048 9.37385 4.2048 9.50009 4.17408C9.64345 4.14 9.74585 4.04784 10.5787 3.22528C11.3774 2.44032 11.5275 2.30368 11.7051 2.22864C13.0601 1.63136 14.4049 3.01361 13.7529 4.33456C13.6436 4.55648 13.4833 4.72704 11.4252 6.7784C8.84137 9.35169 9.05977 9.18097 8.36009 9.18097C7.97449 9.18097 7.93689 9.17409 7.72873 9.07521C7.60585 9.01713 7.41817 8.89777 7.30889 8.80897C7.19961 8.72033 7.07337 8.63489 7.02553 8.61777C6.90265 8.56993 6.72169 8.57681 6.59209 8.63137C6.45561 8.69281 5.80025 9.35489 5.75241 9.48129C5.65337 9.74417 5.72857 9.96257 6.01177 10.2219C7.01865 11.1538 8.55113 11.396 9.80041 10.8192C10.3499 10.5632 10.442 10.4846 12.7391 8.19457C13.9884 6.9488 15.026 5.89072 15.142 5.73376C16.0055 4.60064 16.0739 3.01696 15.3161 1.79504C14.9953 1.28304 14.3502 0.709604 13.8315 0.480964C13.1999 0.201124 12.5105 0.0987234 11.8756 0.190884Z" fill="#7397CE"/>
  <path d="M7.18906 4.89763C6.63274 4.97619 5.9705 5.24915 5.54394 5.57683C5.1993 5.83955 0.93626 10.1333 0.76906 10.3859C-0.0330202 11.584 -0.0432602 13.113 0.7417 14.2939C0.97386 14.6421 1.44826 15.1029 1.7929 15.3179C3.01482 16.0757 4.5985 16.0074 5.73162 15.1439C5.88186 15.0312 6.49962 14.4407 7.10714 13.8331C8.0185 12.9151 8.20618 12.7103 8.21306 12.6248C8.23018 12.2528 8.1073 12.1197 7.66698 12.0447C7.52362 12.0173 7.24026 11.9525 7.03898 11.8944C6.69082 11.7954 6.63626 11.792 6.41434 11.8501C6.37674 11.8603 5.93306 12.2802 5.42458 12.7784C4.6225 13.5738 4.47578 13.7034 4.29482 13.7819C3.77258 14.0106 3.16506 13.9491 2.71802 13.6215C2.10362 13.1675 1.90906 12.3621 2.25034 11.6727C2.35962 11.4507 2.51658 11.2835 4.57818 9.22883C7.16186 6.65539 6.9433 6.82595 7.64298 6.82595C8.02858 6.82595 8.06618 6.83283 8.27434 6.93171C8.39722 6.98979 8.5849 7.10915 8.69418 7.19795C8.80346 7.28675 8.9297 7.37203 8.97754 7.38915C9.09018 7.43347 9.27114 7.43347 9.3905 7.38579C9.51674 7.33795 10.179 6.68275 10.2404 6.54611C10.2985 6.41635 10.3019 6.23555 10.2507 6.10243C10.138 5.80211 9.39402 5.27299 8.78634 5.06147C8.33594 4.90435 7.64298 4.83267 7.18906 4.89763Z" fill="#7397CE"/>
</svg>
