<svg width="11" height="20" viewBox="0 0 11 20" fill="none" xmlns="http://www.w3.org/2000/svg">
  <path d="M5.5 3.02543C6.61939 3.02543 7.52974 3.9842 7.52974 5.16312C7.52974 6.3385 6.61939 7.29726 5.5 7.29726C4.38061 7.29726 3.47026 6.3385 3.47026 5.16312C3.47026 3.9842 4.38061 3.02543 5.5 3.02543ZM5.5 10.3227C8.20408 10.3227 10.4024 8.00746 10.4024 5.16312C10.4024 2.31524 8.20408 0 5.5 0C2.79592 0 0.600967 2.31524 0.600967 5.16312C0.600967 8.00746 2.79592 10.3227 5.5 10.3227ZM7.48254 14.5342C8.48055 14.2927 9.44148 13.8772 10.3282 13.2913C10.9992 12.8474 11.2015 11.9135 10.78 11.2069C10.3552 10.4967 9.47182 10.2836 8.79749 10.7311C6.79135 12.0591 4.20865 12.0591 2.19914 10.7311C1.52818 10.2836 0.641428 10.4967 0.21997 11.2069C-0.201489 11.9135 0.00081035 12.8474 0.671772 13.2913C1.55852 13.8772 2.51945 14.2927 3.51746 14.5342L0.776294 17.4176C0.216597 18.007 0.216597 18.9658 0.776294 19.5552C1.05951 19.85 1.42365 19.9991 1.79117 19.9991C2.15868 19.9991 2.52619 19.85 2.80941 19.5552L5.5 16.7216L8.19396 19.5552C8.75366 20.1483 9.66064 20.1483 10.2237 19.5552C10.7834 18.9658 10.7834 18.007 10.2237 17.4176L7.48254 14.5342Z" fill="#EB722E"/>
</svg>
