<svg width="163" height="30" viewBox="0 0 163 30" fill="none" xmlns="http://www.w3.org/2000/svg">
<path d="M9.60187 0.57373L0.000576019 0.573729L0.000574758 29.4263L7.49711 29.4263L7.49712 22.2706L9.60836 22.2706C22.3798 22.2706 24.0428 15.2903 24.0428 11.4829C24.0428 7.6755 22.3733 0.57373 9.60187 0.57373ZM10.992 16.2152L7.49712 16.2152L7.49712 6.63588L10.992 6.63588C14.8767 6.63588 16.5462 9.05939 16.5462 11.4221C16.5462 13.8457 14.8767 16.2152 10.992 16.2152Z" fill="#27363A" fill-opacity="0.66"/>
<path d="M134.029 29.4263L134.029 0.57373L126.532 0.57373L126.532 29.4263L134.029 29.4263Z" fill="#27363A" fill-opacity="0.66"/>
<path d="M147.97 29.4263C160.741 29.4263 162.404 22.3313 162.404 18.5239C162.404 14.7165 160.741 7.7295 147.97 7.7295L145.859 7.7295L145.859 0.57373L138.362 0.573729L138.362 29.4263L147.97 29.4263ZM149.354 13.7917C153.238 13.7917 154.908 16.1544 154.908 18.5779C154.908 20.9407 153.245 23.3642 149.354 23.3642L145.859 23.3642L145.859 13.7917L149.354 13.7917Z" fill="#27363A" fill-opacity="0.66"/>
<path d="M121.596 19.0408C123.759 19.0408 125.539 17.1918 125.539 15.0054C125.539 12.6976 123.759 10.8553 121.596 10.8553C119.485 10.8553 117.653 12.7043 117.653 15.0054C117.653 17.1918 119.485 19.0408 121.596 19.0408Z" fill="#27363A" fill-opacity="0.66"/>
<path d="M116.652 29.4263L116.652 0.57373L109.156 0.57373L109.156 29.4263L116.652 29.4263Z" fill="#27363A" fill-opacity="0.66"/>
<path d="M34.5929 25.8478C34.5929 23.4864 32.761 21.5839 30.5393 21.5839C28.3761 21.5839 26.4857 23.4864 26.4857 25.8478C26.4857 28.1551 28.3761 29.997 30.5393 29.997C32.7545 30.0037 34.5929 28.1551 34.5929 25.8478Z" fill="#27363A" fill-opacity="0.66"/>
<path d="M93.0575 -5.16643e-07C84.1188 -9.07249e-07 81.176 5.13726 81.176 9.05941L88.7245 9.05941C88.7245 7.15572 90.6669 5.94059 93.0575 5.94059C95.9417 5.94059 97.5008 7.14896 97.5008 9.86274L97.5008 11.7664L91.7257 11.7664C83.2288 11.7664 79.6234 16.3231 79.6234 21.0014C79.6234 25.6796 83.5081 30 89.4521 30C93.8955 30 96.6173 27.6913 97.5008 25.9631L97.5008 29.4262L104.88 29.4262L104.88 10.6728C104.88 5.13726 102.217 -1.16387e-07 93.0575 -5.16643e-07ZM97.4943 19.2732C97.4943 21.6359 94.9933 24.0054 91.1671 24.0054C89.0039 24.0054 87.1719 22.6215 87.1719 20.6571C87.1719 18.6926 88.783 17.2547 91.7777 17.2547L97.4943 17.2547L97.4943 19.2732Z" fill="#27363A" fill-opacity="0.66"/>
<path d="M77.5649 8.3641C77.5649 5.13727 75.0639 -1.0929e-07 65.0728 -5.45882e-07C55.3026 -9.72822e-07 52.6327 5.13727 52.6327 9.05942L60.519 9.05942C60.519 7.15572 62.299 6.06211 65.3522 6.06211C68.3534 6.06211 70.0749 7.15573 70.0749 8.94466C70.0749 10.7943 68.4118 11.888 65.0793 11.942L60.7464 12.0027L60.7464 18.0581L65.0793 18.0581C68.4118 18.0581 70.0749 19.2124 70.0749 21.0554C70.0749 22.8443 68.3534 24.0527 65.3522 24.0527C62.299 24.0527 60.519 22.8443 60.519 20.9339L52.6327 20.9339C52.6327 24.856 55.2961 29.9933 65.0728 29.9933C75.0639 29.9933 77.5649 24.856 77.5649 21.6292C77.5649 18.2268 75.6745 15.5131 71.4585 15.054L71.4585 14.9393C75.6745 14.4802 77.5649 11.7732 77.5649 8.3641Z" fill="#27363A" fill-opacity="0.66"/>
<path d="M40.8098 0.57373C28.0384 0.573729 26.3754 7.66875 26.3754 11.4762C26.3754 15.2836 28.0384 22.2638 40.8098 22.2638L42.921 22.2638L42.921 29.4196L50.411 29.4196L50.411 0.57373L40.8098 0.57373ZM39.4196 16.2152C35.5349 16.2152 33.8654 13.8524 33.8654 11.4289C33.8654 9.06615 35.5284 6.64264 39.4196 6.64264L42.9145 6.64264L42.9145 16.2219L39.4196 16.2219L39.4196 16.2152Z" fill="#27363A" fill-opacity="0.66"/>
</svg>
