<svg width="24" height="24" viewBox="0 0 24 24" fill="none" xmlns="http://www.w3.org/2000/svg">
  <path fill-rule="evenodd" clip-rule="evenodd" d="M10 2.5C5.85786 2.5 2.5 5.85786 2.5 10C2.5 14.1421 5.85786 17.5 10 17.5C12.0712 17.5 13.9455 16.6611 15.3033 15.3033C16.6611 13.9455 17.5 12.0712 17.5 10C17.5 5.85786 14.1421 2.5 10 2.5ZM1.5 10C1.5 5.30558 5.30558 1.5 10 1.5C14.6944 1.5 18.5 5.30558 18.5 10C18.5 12.1671 17.6884 14.1455 16.3536 15.6465L22.3536 21.6464C22.5488 21.8417 22.5488 22.1583 22.3536 22.3536C22.1583 22.5488 21.8417 22.5488 21.6464 22.3536L15.6465 16.3536C14.1455 17.6884 12.1671 18.5 10 18.5C5.30558 18.5 1.5 14.6944 1.5 10Z" fill="#EEAEB5"/>
</svg>
